<svg xmlns="http://www.w3.org/2000/svg" viewBox="0 0 200 200" width="200" height="200">
  <defs>
    <linearGradient id="bg" x1="0%" y1="0%" x2="100%" y2="100%">
      <stop offset="0%" style="stop-color:#2e7d32"/>
      <stop offset="100%" style="stop-color:#66bb6a"/>
    </linearGradient>
    <linearGradient id="leaf" x1="0%" y1="0%" x2="100%" y2="100%">
      <stop offset="0%" style="stop-color:#a5d6a7"/>
      <stop offset="100%" style="stop-color:#4caf50"/>
    </linearGradient>
  </defs>
  <!-- Circle background -->
  <circle cx="100" cy="100" r="95" fill="url(#bg)" opacity="0.15"/>
  <circle cx="100" cy="100" r="95" fill="none" stroke="url(#bg)" stroke-width="3"/>
  
  <!-- Wheat/plant stalk -->
  <path d="M100 170 L100 75" stroke="#2e7d32" stroke-width="4" stroke-linecap="round" fill="none"/>
  
  <!-- Left leaves -->
  <path d="M100 130 Q75 115 65 95" stroke="url(#leaf)" stroke-width="3" fill="none" stroke-linecap="round"/>
  <ellipse cx="72" cy="105" rx="18" ry="8" fill="url(#leaf)" opacity="0.7" transform="rotate(-35, 72, 105)"/>
  
  <path d="M100 110 Q70 100 60 78" stroke="url(#leaf)" stroke-width="3" fill="none" stroke-linecap="round"/>
  <ellipse cx="68" cy="85" rx="16" ry="7" fill="url(#leaf)" opacity="0.7" transform="rotate(-40, 68, 85)"/>
  
  <!-- Right leaves -->
  <path d="M100 125 Q125 110 135 90" stroke="url(#leaf)" stroke-width="3" fill="none" stroke-linecap="round"/>
  <ellipse cx="128" cy="100" rx="18" ry="8" fill="url(#leaf)" opacity="0.7" transform="rotate(35, 128, 100)"/>
  
  <path d="M100 105 Q130 95 140 73" stroke="url(#leaf)" stroke-width="3" fill="none" stroke-linecap="round"/>
  <ellipse cx="132" cy="80" rx="16" ry="7" fill="url(#leaf)" opacity="0.7" transform="rotate(40, 132, 80)"/>
  
  <!-- Wheat head -->
  <ellipse cx="100" cy="68" rx="6" ry="12" fill="#ffc107" opacity="0.9"/>
  <ellipse cx="92" cy="72" rx="5" ry="10" fill="#ffc107" opacity="0.8" transform="rotate(-15, 92, 72)"/>
  <ellipse cx="108" cy="72" rx="5" ry="10" fill="#ffc107" opacity="0.8" transform="rotate(15, 108, 72)"/>
  <ellipse cx="86" cy="78" rx="4" ry="9" fill="#ffc107" opacity="0.7" transform="rotate(-25, 86, 78)"/>
  <ellipse cx="114" cy="78" rx="4" ry="9" fill="#ffc107" opacity="0.7" transform="rotate(25, 114, 78)"/>
  
  <!-- Small AI circuit dots -->
  <circle cx="100" cy="50" r="3" fill="#1565c0" opacity="0.8"/>
  <circle cx="88" cy="55" r="2" fill="#1565c0" opacity="0.6"/>
  <circle cx="112" cy="55" r="2" fill="#1565c0" opacity="0.6"/>
  <line x1="100" y1="50" x2="88" y2="55" stroke="#1565c0" stroke-width="1" opacity="0.4"/>
  <line x1="100" y1="50" x2="112" y2="55" stroke="#1565c0" stroke-width="1" opacity="0.4"/>
</svg>
